PathFileType  4	(X/Y/Z)
DataRate	CameraRate	NumFrames	NumMarkers	Units	OrigDataRate	OrigDataStartFrame	OrigNumFrames
  100.0 	  100.0 	    7 	     42 	mm 	  100.0 	      89 	    237
Frame#	Time	R.Shoulder			R.Clavicle			R.Bicep			R.Elbow			R.Forearm			R.Wrist			L.Shoulder			L.Clavicle			L.Scapula			L.Bicep			L.Elbow			L.Forearm			L.Wrist			R.ASIS			R.Iliac			S2			L.Iliac			L.ASIS			R.TH1			R.TH2			R.TH3			R.Knee			R.SH1			R.SH2			R.SH3			R.SH4			R.Ankle			R.Heel			R.MT5			L.TH1			L.TH2			L.TH3			L.TH4			L.Knee			L.SH1			L.SH2			L.SH3			L.Ankle			L.Heel			L.MT5			R_HJC			L_HJC			
		X1	Y1	Z1	X2	Y2	Z2	X3	Y3	Z3	X4	Y4	Z4	X5	Y5	Z5	X6	Y6	Z6	X7	Y7	Z7	X8	Y8	Z8	X9	Y9	Z9	X10	Y10	Z10	X11	Y11	Z11	X12	Y12	Z12	X13	Y13	Z13	X14	Y14	Z14	X15	Y15	Z15	X16	Y16	Z16	X17	Y17	Z17	X18	Y18	Z18	X19	Y19	Z19	X20	Y20	Z20	X21	Y21	Z21	X22	Y22	Z22	X23	Y23	Z23	X24	Y24	Z24	X25	Y25	Z25	X26	Y26	Z26	X27	Y27	Z27	X28	Y28	Z28	X29	Y29	Z29	X30	Y30	Z30	X31	Y31	Z31	X32	Y32	Z32	X33	Y33	Z33	X34	Y34	Z34	X35	Y35	Z35	X36	Y36	Z36	X37	Y37	Z37	X38	Y38	Z38	X39	Y39	Z39	X40	Y40	Z40	X41	Y41	Z41	X42	Y42	Z42	

89	0.88000	-449.111	1413.218	-37.230	-390.779	1393.380	-196.103	-423.002	1243.650	-20.629	-479.924	1106.417	39.665	-372.070	999.935	15.906	-344.057	900.067	53.141	-517.385	1413.552	-416.016	-389.598	1393.956	-262.436	-602.841	1304.595	-268.763	-485.073	1246.106	-432.047	-574.863	1118.349	-476.384	-512.224	992.702	-494.756	-546.177	879.520	-527.792	-393.081	941.217	-80.106	-499.948	1012.978	-65.078	-575.004	959.067	-236.291	-475.613	1036.422	-384.681	-375.216	962.352	-355.302	-314.512	727.746	-91.508	-293.662	643.330	-97.921	-418.208	605.793	-29.530	-393.319	480.547	-52.302	-447.084	343.435	-82.765	-511.478	306.867	-95.115	-508.810	435.293	-47.464	-572.455	399.195	-60.176	-698.472	259.196	-105.029	-758.171	287.617	-179.692	-698.775	124.854	-65.467	-327.421	766.756	-371.008	-313.884	685.662	-350.506	-463.052	728.618	-430.187	-446.732	645.064	-406.909	-395.232	494.133	-369.514	-364.302	361.902	-345.829	-370.457	286.749	-337.847	-482.975	291.475	-360.865	-460.405	89.901	-313.119	-516.536	42.322	-254.028	-334.440	36.016	-342.346	-461.038	847.578	-130.863	-447.675	862.371	-339.722
90	0.89000	-439.403	1414.840	-37.306	-379.865	1395.074	-195.720	-414.089	1245.022	-20.819	-472.344	1108.121	38.830	-365.303	1000.664	16.129	-338.631	900.482	53.660	-504.482	1415.930	-416.670	-378.376	1395.727	-262.035	-591.584	1306.678	-270.419	-470.066	1248.757	-432.313	-556.866	1119.800	-478.418	-491.949	995.216	-495.471	-522.990	881.449	-529.247	-383.604	944.222	-80.928	-490.458	1015.673	-66.205	-564.792	961.166	-237.461	-464.568	1037.491	-385.570	-364.578	962.929	-355.827	-300.405	734.346	-92.284	-277.203	650.523	-98.845	-400.443	609.381	-29.975	-371.343	485.277	-53.521	-421.631	346.889	-83.665	-485.238	308.817	-95.737	-485.357	437.215	-48.165	-548.226	399.668	-60.500	-671.066	256.061	-104.604	-732.709	282.409	-178.589	-665.845	122.015	-65.204	-319.145	765.713	-370.754	-307.010	684.406	-350.005	-455.117	729.620	-430.385	-440.298	645.857	-406.816	-391.947	494.108	-369.298	-362.132	361.751	-345.300	-368.822	286.631	-337.384	-481.201	292.049	-360.812	-460.277	90.466	-312.838	-516.490	42.510	-253.987	-334.434	36.038	-342.356	-451.555	849.964	-130.950	-437.300	863.572	-339.830
91	0.90000	-429.775	1416.377	-37.384	-369.009	1396.672	-195.375	-405.263	1246.306	-20.934	-464.922	1109.761	38.016	-358.635	1001.373	16.484	-333.330	900.883	54.305	-491.708	1418.154	-417.271	-367.211	1397.386	-261.653	-580.340	1308.586	-272.003	-455.129	1251.300	-432.495	-538.861	1121.205	-480.357	-471.633	997.784	-496.083	-499.583	883.443	-530.555	-373.963	947.144	-81.938	-480.673	1018.368	-67.259	-554.500	963.186	-238.395	-453.664	1038.373	-386.459	-354.004	963.353	-356.532	-286.616	740.890	-93.074	-261.152	657.742	-99.780	-382.957	613.156	-30.285	-349.972	490.004	-54.682	-396.371	350.231	-84.525	-458.901	310.385	-96.329	-462.429	438.657	-48.823	-524.301	399.397	-60.802	-643.207	251.740	-104.160	-706.738	275.743	-177.544	-632.049	118.205	-65.023	-311.012	764.517	-370.780	-300.277	683.009	-349.779	-447.515	730.514	-430.472	-434.112	646.569	-406.657	-388.804	494.067	-369.140	-359.944	361.632	-344.788	-367.143	286.538	-336.931	-479.369	292.599	-360.864	-460.139	91.001	-312.597	-516.443	42.713	-253.980	-334.424	36.048	-342.363	-441.920	852.295	-130.991	-427.061	864.623	-339.908
92	0.91000	-420.192	1417.782	-37.475	-358.203	1398.131	-195.080	-396.508	1247.464	-20.965	-457.638	1111.289	37.228	-352.048	1002.017	16.982	-328.133	901.228	55.080	-479.058	1420.181	-417.832	-356.081	1398.896	-261.300	-569.110	1310.304	-273.519	-440.282	1253.688	-432.595	-520.874	1122.521	-482.204	-451.277	1000.367	-496.580	-475.983	885.478	-531.702	-364.134	949.908	-83.132	-470.605	1020.976	-68.240	-544.124	965.056	-239.074	-442.911	1039.065	-387.339	-343.517	963.633	-357.439	-273.153	747.282	-93.913	-245.524	664.876	-100.768	-365.751	617.029	-30.455	-329.226	494.616	-55.745	-371.334	353.408	-85.348	-432.495	311.555	-96.896	-440.023	439.555	-49.432	-500.660	398.350	-61.071	-614.895	246.331	-103.750	-680.200	267.670	-176.624	-597.428	113.601	-64.892	-303.015	763.182	-371.089	-293.672	681.494	-349.810	-440.192	731.300	-430.464	-428.121	647.199	-406.442	-385.792	494.012	-369.030	-357.788	361.531	-344.358	-365.467	286.458	-336.539	-477.567	293.142	-360.921	-459.995	91.500	-312.375	-516.389	42.923	-253.993	-334.409	36.043	-342.365	-432.100	854.506	-131.017	-416.940	865.512	-339.987
93	0.92000	-410.617	1419.011	-37.590	-347.425	1399.410	-194.845	-387.807	1248.465	-20.911	-450.461	1112.661	36.467	-345.529	1002.543	17.622	-323.022	901.472	55.986	-466.515	1421.975	-418.370	-344.968	1400.225	-260.990	-557.893	1311.822	-274.974	-425.543	1255.878	-432.613	-502.925	1123.710	-483.963	-430.890	1002.925	-496.941	-452.222	887.540	-532.674	-354.115	952.449	-84.491	-460.286	1023.427	-69.154	-533.665	966.709	-239.494	-432.318	1039.563	-388.197	-333.133	963.779	-358.551	-260.021	753.418	-94.840	-230.335	671.797	-101.857	-348.820	620.915	-30.489	-309.127	499.023	-56.685	-346.538	356.374	-86.124	-406.044	312.315	-97.440	-418.124	439.853	-49.979	-477.272	396.501	-61.297	-586.114	239.931	-103.421	-653.022	258.265	-175.874	-562.014	108.359	-64.785	-295.141	761.730	-371.654	-287.169	679.887	-350.061	-433.074	731.980	-430.383	-422.263	647.749	-406.183	-382.892	493.944	-368.957	-355.709	361.441	-344.056	-363.839	286.386	-336.245	-475.868	293.695	-360.907	-459.841	91.958	-312.145	-516.319	43.128	-254.012	-334.387	36.022	-342.360	-422.080	856.540	-131.050	-406.911	866.230	-340.085
94	0.93000	-401.009	1420.028	-37.734	-336.643	1400.474	-194.678	-379.136	1249.278	-20.786	-443.346	1113.844	35.732	-339.066	1002.904	18.395	-317.987	901.578	57.024	-454.058	1423.504	-418.901	-333.855	1401.348	-260.741	-546.688	1313.129	-276.372	-410.918	1257.833	-432.552	-485.035	1124.736	-485.640	-410.486	1005.425	-497.145	-428.335	889.625	-533.460	-343.921	954.721	-85.982	-449.756	1025.665	-70.004	-523.136	968.082	-239.660	-421.897	1039.865	-389.017	-322.858	963.794	-359.851	-247.220	759.189	-95.899	-215.594	678.374	-103.092	-332.159	624.728	-30.394	-289.696	503.148	-57.497	-322.004	359.089	-86.836	-379.574	312.660	-97.958	-396.703	439.498	-50.439	-454.098	393.827	-61.473	-556.835	232.626	-103.200	-625.116	247.626	-175.317	-525.841	102.620	-64.687	-287.372	760.178	-372.420	-280.733	678.213	-350.485	-426.076	732.556	-430.253	-416.491	648.218	-405.895	-380.079	493.867	-368.912	-353.728	361.356	-343.898	-362.286	286.315	-336.066	-474.314	294.277	-360.777	-459.667	92.371	-311.885	-516.235	43.330	-254.021	-334.358	35.993	-342.352	-411.853	858.354	-131.099	-396.950	866.765	-340.208
95	0.94000	-391.331	1420.807	-37.908	-325.827	1401.298	-194.577	-370.460	1249.877	-20.613	-436.244	1114.816	35.023	-332.641	1003.062	19.283	-313.018	901.514	58.185	-441.663	1424.744	-419.441	-322.733	1402.246	-260.560	-535.492	1314.212	-277.708	-396.408	1259.525	-432.417	-467.216	1125.573	-487.239	-390.089	1007.840	-497.175	-404.360	891.733	-534.048	-333.579	956.686	-87.561	-439.053	1027.648	-70.791	-512.550	969.123	-239.586	-411.663	1039.967	-389.784	-312.686	963.673	-361.298	-234.733	764.491	-97.135	-201.300	684.478	-104.505	-315.763	628.388	-30.183	-270.959	506.927	-58.185	-297.762	361.517	-87.471	-353.117	312.597	-98.443	-375.729	438.445	-50.784	-431.098	390.316	-61.593	-527.018	224.505	-103.089	-596.400	235.871	-174.955	-488.948	96.507	-64.588	-279.695	758.540	-373.307	-274.321	676.492	-351.033	-419.126	733.030	-430.089	-410.766	648.607	-405.588	-377.326	493.782	-368.885	-351.842	361.269	-343.873	-360.812	286.238	-335.998	-472.908	294.897	-360.521	-459.468	92.738	-311.588	-516.138	43.539	-254.013	-334.325	35.961	-342.345	-401.425	859.911	-131.161	-387.036	867.103	-340.351
